<svg xmlns="http://www.w3.org/2000/svg" xmlns:xlink="http://www.w3.org/1999/xlink" width="800" zoomAndPan="magnify" viewBox="0 0 600 299.999988" height="400" preserveAspectRatio="xMidYMid meet" version="1.0"><defs><g/><clipPath id="4eb49a1863"><path d="M 56.15625 78.800781 L 155.90625 78.800781 L 155.90625 198.800781 L 56.15625 198.800781 Z M 56.15625 78.800781 " clip-rule="nonzero"/></clipPath></defs><rect x="-60" width="720" fill="#ffffff" y="-29.999999" height="359.999986" fill-opacity="1"/><rect x="-60" width="720" fill="#105da5" y="-29.999999" height="359.999986" fill-opacity="1"/><path fill="#f6f5f1" d="M 82.101562 168.800781 L 86.089844 168.800781 C 87.1875 168.800781 88.082031 167.902344 88.082031 166.800781 C 88.082031 165.699219 87.1875 164.800781 86.089844 164.800781 L 82.101562 164.800781 C 81.003906 164.800781 80.105469 165.699219 80.105469 166.800781 C 80.105469 167.902344 81.003906 168.800781 82.101562 168.800781 " fill-opacity="1" fill-rule="nonzero"/><path fill="#f6f5f1" d="M 141.925781 164.800781 L 94.066406 164.800781 C 92.96875 164.800781 92.070312 165.699219 92.070312 166.800781 C 92.070312 167.902344 92.96875 168.800781 94.066406 168.800781 L 141.925781 168.800781 C 143.023438 168.800781 143.917969 167.902344 143.917969 166.800781 C 143.917969 165.699219 143.023438 164.800781 141.925781 164.800781 " fill-opacity="1" fill-rule="nonzero"/><path fill="#f6f5f1" d="M 82.101562 156.800781 L 86.089844 156.800781 C 87.1875 156.800781 88.082031 155.902344 88.082031 154.800781 C 88.082031 153.699219 87.1875 152.800781 86.089844 152.800781 L 82.101562 152.800781 C 81.003906 152.800781 80.105469 153.699219 80.105469 154.800781 C 80.105469 155.902344 81.003906 156.800781 82.101562 156.800781 " fill-opacity="1" fill-rule="nonzero"/><path fill="#f6f5f1" d="M 141.925781 152.800781 L 94.066406 152.800781 C 92.96875 152.800781 92.070312 153.699219 92.070312 154.800781 C 92.070312 155.902344 92.96875 156.800781 94.066406 156.800781 L 141.925781 156.800781 C 143.023438 156.800781 143.917969 155.902344 143.917969 154.800781 C 143.917969 153.699219 143.023438 152.800781 141.925781 152.800781 " fill-opacity="1" fill-rule="nonzero"/><path fill="#f6f5f1" d="M 82.101562 144.800781 L 86.089844 144.800781 C 87.1875 144.800781 88.082031 143.902344 88.082031 142.800781 C 88.082031 141.699219 87.1875 140.800781 86.089844 140.800781 L 82.101562 140.800781 C 81.003906 140.800781 80.105469 141.699219 80.105469 142.800781 C 80.105469 143.902344 81.003906 144.800781 82.101562 144.800781 " fill-opacity="1" fill-rule="nonzero"/><path fill="#f6f5f1" d="M 141.925781 140.800781 L 94.066406 140.800781 C 92.96875 140.800781 92.070312 141.699219 92.070312 142.800781 C 92.070312 143.902344 92.96875 144.800781 94.066406 144.800781 L 141.925781 144.800781 C 143.023438 144.800781 143.917969 143.902344 143.917969 142.800781 C 143.917969 141.699219 143.023438 140.800781 141.925781 140.800781 " fill-opacity="1" fill-rule="nonzero"/><path fill="#f6f5f1" d="M 82.101562 132.800781 L 86.089844 132.800781 C 87.1875 132.800781 88.082031 131.902344 88.082031 130.800781 C 88.082031 129.699219 87.1875 128.800781 86.089844 128.800781 L 82.101562 128.800781 C 81.003906 128.800781 80.105469 129.699219 80.105469 130.800781 C 80.105469 131.902344 81.003906 132.800781 82.101562 132.800781 " fill-opacity="1" fill-rule="nonzero"/><path fill="#f6f5f1" d="M 141.925781 128.800781 L 94.066406 128.800781 C 92.96875 128.800781 92.070312 129.699219 92.070312 130.800781 C 92.070312 131.902344 92.96875 132.800781 94.066406 132.800781 L 141.925781 132.800781 C 143.023438 132.800781 143.917969 131.902344 143.917969 130.800781 C 143.917969 129.699219 143.023438 128.800781 141.925781 128.800781 " fill-opacity="1" fill-rule="nonzero"/><path fill="#f6f5f1" d="M 82.101562 120.800781 L 86.089844 120.800781 C 87.1875 120.800781 88.082031 119.902344 88.082031 118.800781 C 88.082031 117.699219 87.1875 116.800781 86.089844 116.800781 L 82.101562 116.800781 C 81.003906 116.800781 80.105469 117.699219 80.105469 118.800781 C 80.105469 119.902344 81.003906 120.800781 82.101562 120.800781 " fill-opacity="1" fill-rule="nonzero"/><path fill="#f6f5f1" d="M 92.070312 118.800781 C 92.070312 119.902344 92.96875 120.800781 94.066406 120.800781 L 141.925781 120.800781 C 143.023438 120.800781 143.917969 119.902344 143.917969 118.800781 C 143.917969 117.699219 143.023438 116.800781 141.925781 116.800781 L 94.066406 116.800781 C 92.96875 116.800781 92.070312 117.699219 92.070312 118.800781 " fill-opacity="1" fill-rule="nonzero"/><g clip-path="url(#4eb49a1863)"><path fill="#f6f5f1" d="M 60.164062 90.800781 L 68.140625 90.800781 L 68.140625 184.800781 C 68.140625 185.902344 69.039062 186.800781 70.136719 186.800781 L 139.929688 186.800781 L 139.929688 194.800781 L 60.164062 194.800781 Z M 72.128906 82.800781 L 123.976562 82.800781 L 123.976562 108.800781 C 123.976562 109.902344 124.875 110.800781 125.972656 110.800781 L 151.894531 110.800781 L 151.894531 182.800781 L 72.128906 182.800781 Z M 149.074219 106.800781 L 127.964844 106.800781 L 127.964844 85.628906 Z M 58.171875 198.800781 L 141.925781 198.800781 C 143.023438 198.800781 143.917969 197.902344 143.917969 196.800781 L 143.917969 186.800781 L 153.890625 186.800781 C 154.988281 186.800781 155.882812 185.902344 155.882812 184.800781 L 155.882812 108.800781 C 155.882812 108.753906 155.859375 108.714844 155.859375 108.675781 C 155.84375 108.496094 155.8125 108.332031 155.757812 108.160156 C 155.734375 108.097656 155.71875 108.035156 155.6875 107.972656 C 155.597656 107.761719 155.472656 107.558594 155.300781 107.386719 L 127.382812 79.386719 C 127.210938 79.214844 127.007812 79.089844 126.796875 78.996094 C 126.734375 78.964844 126.671875 78.949219 126.609375 78.925781 C 126.4375 78.871094 126.277344 78.839844 126.097656 78.824219 C 126.050781 78.824219 126.019531 78.800781 125.972656 78.800781 L 70.136719 78.800781 C 69.039062 78.800781 68.140625 79.699219 68.140625 80.800781 L 68.140625 86.800781 L 58.171875 86.800781 C 57.074219 86.800781 56.175781 87.699219 56.175781 88.800781 L 56.175781 196.800781 C 56.175781 197.902344 57.074219 198.800781 58.171875 198.800781 " fill-opacity="1" fill-rule="nonzero"/></g><path fill="#f6f5f1" d="M 84.09375 100.800781 L 92.070312 100.800781 L 92.070312 108.800781 L 84.09375 108.800781 Z M 82.101562 112.800781 L 94.066406 112.800781 C 95.164062 112.800781 96.058594 111.902344 96.058594 110.800781 L 96.058594 98.800781 C 96.058594 97.699219 95.164062 96.800781 94.066406 96.800781 L 82.101562 96.800781 C 81.003906 96.800781 80.105469 97.699219 80.105469 98.800781 L 80.105469 110.800781 C 80.105469 111.902344 81.003906 112.800781 82.101562 112.800781 " fill-opacity="1" fill-rule="nonzero"/><g fill="#f6f5f1" fill-opacity="1"><g transform="translate(198.378526, 128.001273)"><g><path d="M 2.53125 8.640625 L 12.484375 3.765625 C 14.304688 6.785156 17.484375 8.296875 22.015625 8.296875 C 24.117188 8.296875 26.070312 7.617188 27.875 6.265625 C 29.675781 4.921875 30.578125 2.851562 30.578125 0.0625 L 30.578125 -2.53125 C 28.429688 -0.15625 24.59375 1.03125 19.0625 1.03125 C 13.988281 1.03125 9.804688 -0.757812 6.515625 -4.34375 C 3.222656 -7.9375 1.578125 -12.335938 1.578125 -17.546875 C 1.578125 -22.765625 3.222656 -27.175781 6.515625 -30.78125 C 9.804688 -34.394531 13.988281 -36.203125 19.0625 -36.203125 C 23.59375 -36.203125 27.363281 -34.8125 30.375 -32.03125 L 30.578125 -32.03125 L 30.578125 -35.1875 L 42.71875 -35.1875 L 42.71875 0.953125 C 42.71875 6.671875 40.820312 11.082031 37.03125 14.1875 C 33.238281 17.300781 28.234375 18.859375 22.015625 18.859375 C 11.953125 18.859375 5.457031 15.453125 2.53125 8.640625 Z M 16.828125 -23.515625 C 15.253906 -21.960938 14.46875 -19.972656 14.46875 -17.546875 C 14.46875 -15.128906 15.222656 -13.15625 16.734375 -11.625 C 18.242188 -10.09375 20.234375 -9.328125 22.703125 -9.328125 C 25.078125 -9.328125 27.03125 -10.101562 28.5625 -11.65625 C 30.09375 -13.207031 30.859375 -15.175781 30.859375 -17.5625 C 30.859375 -19.976562 30.066406 -21.960938 28.484375 -23.515625 C 26.910156 -25.078125 24.984375 -25.859375 22.703125 -25.859375 C 20.367188 -25.859375 18.410156 -25.078125 16.828125 -23.515625 Z M 16.828125 -23.515625 "/></g></g></g><g fill="#f6f5f1" fill-opacity="1"><g transform="translate(241.780716, 128.001273)"><g><path d="M 15.5625 -35.1875 L 15.5625 -18.453125 C 15.5625 -14.972656 16.085938 -12.5 17.140625 -11.03125 C 18.191406 -9.570312 19.972656 -8.84375 22.484375 -8.84375 C 25.003906 -8.84375 26.789062 -9.570312 27.84375 -11.03125 C 28.894531 -12.5 29.421875 -14.972656 29.421875 -18.453125 L 29.421875 -35.1875 L 41.5625 -35.1875 L 41.5625 -15.5 C 41.5625 -9.644531 40.039062 -5.425781 37 -2.84375 C 33.957031 -0.257812 29.117188 1.03125 22.484375 1.03125 C 15.859375 1.03125 11.023438 -0.257812 7.984375 -2.84375 C 4.941406 -5.425781 3.421875 -9.644531 3.421875 -15.5 L 3.421875 -35.1875 Z M 15.5625 -35.1875 "/></g></g></g><g fill="#f6f5f1" fill-opacity="1"><g transform="translate(283.331618, 128.001273)"><g><path d="M 5.28125 -54.796875 C 6.695312 -56.210938 8.382812 -56.921875 10.34375 -56.921875 C 12.3125 -56.921875 14.003906 -56.210938 15.421875 -54.796875 C 16.847656 -53.378906 17.5625 -51.6875 17.5625 -49.71875 C 17.5625 -47.75 16.847656 -46.054688 15.421875 -44.640625 C 14.003906 -43.222656 12.3125 -42.515625 10.34375 -42.515625 C 8.382812 -42.515625 6.695312 -43.222656 5.28125 -44.640625 C 3.863281 -46.054688 3.15625 -47.75 3.15625 -49.71875 C 3.15625 -51.6875 3.863281 -53.378906 5.28125 -54.796875 Z M 4.109375 -35.1875 L 4.109375 0 L 16.25 0 L 16.25 -35.1875 Z M 4.109375 -35.1875 "/></g></g></g><g fill="#f6f5f1" fill-opacity="1"><g transform="translate(300.610009, 128.001273)"><g><path d="M 6.515625 -4.34375 C 3.222656 -7.9375 1.578125 -12.335938 1.578125 -17.546875 C 1.578125 -22.765625 3.222656 -27.175781 6.515625 -30.78125 C 9.804688 -34.394531 13.988281 -36.203125 19.0625 -36.203125 C 23.726562 -36.203125 27.566406 -34.738281 30.578125 -31.8125 L 30.578125 -58.984375 L 42.71875 -58.984375 L 42.71875 0 L 30.71875 0 L 30.71875 -3.984375 L 30.578125 -3.984375 C 27.566406 -0.640625 23.726562 1.03125 19.0625 1.03125 C 13.988281 1.03125 9.804688 -0.757812 6.515625 -4.34375 Z M 16.828125 -23.515625 C 15.253906 -21.960938 14.46875 -19.972656 14.46875 -17.546875 C 14.46875 -15.128906 15.222656 -13.15625 16.734375 -11.625 C 18.242188 -10.09375 20.234375 -9.328125 22.703125 -9.328125 C 25.078125 -9.328125 27.03125 -10.101562 28.5625 -11.65625 C 30.09375 -13.207031 30.859375 -15.175781 30.859375 -17.5625 C 30.859375 -19.976562 30.066406 -21.960938 28.484375 -23.515625 C 26.910156 -25.078125 24.984375 -25.859375 22.703125 -25.859375 C 20.367188 -25.859375 18.410156 -25.078125 16.828125 -23.515625 Z M 16.828125 -23.515625 "/></g></g></g><g fill="#f6f5f1" fill-opacity="1"><g transform="translate(344.012204, 128.001273)"><g><path d="M 39.703125 -15.90625 L 14.203125 -15.90625 C 14.203125 -13.4375 15 -11.609375 16.59375 -10.421875 C 18.195312 -9.234375 19.9375 -8.640625 21.8125 -8.640625 C 23.769531 -8.640625 25.320312 -8.898438 26.46875 -9.421875 C 27.613281 -9.953125 28.914062 -10.992188 30.375 -12.546875 L 39.15625 -8.15625 C 35.5 -2.03125 29.421875 1.03125 20.921875 1.03125 C 15.617188 1.03125 11.066406 -0.785156 7.265625 -4.421875 C 3.472656 -8.054688 1.578125 -12.429688 1.578125 -17.546875 C 1.578125 -22.671875 3.472656 -27.0625 7.265625 -30.71875 C 11.066406 -34.375 15.617188 -36.203125 20.921875 -36.203125 C 26.492188 -36.203125 31.03125 -34.59375 34.53125 -31.375 C 38.03125 -28.15625 39.78125 -23.550781 39.78125 -17.5625 C 39.78125 -16.738281 39.753906 -16.1875 39.703125 -15.90625 Z M 14.53125 -22.625 L 27.90625 -22.625 C 27.632812 -24.457031 26.914062 -25.863281 25.75 -26.84375 C 24.582031 -27.832031 23.085938 -28.328125 21.265625 -28.328125 C 19.242188 -28.328125 17.640625 -27.800781 16.453125 -26.75 C 15.265625 -25.695312 14.625 -24.320312 14.53125 -22.625 Z M 14.53125 -22.625 "/></g></g></g><g fill="#f6f5f1" fill-opacity="1"><g transform="translate(381.929086, 128.001273)"><g><path d="M 4.109375 0 L 4.109375 -58.984375 L 16.25 -58.984375 L 16.25 0 Z M 4.109375 0 "/></g></g></g><g fill="#f6f5f1" fill-opacity="1"><g transform="translate(398.864647, 128.001273)"><g><path d="M 5.28125 -54.796875 C 6.695312 -56.210938 8.382812 -56.921875 10.34375 -56.921875 C 12.3125 -56.921875 14.003906 -56.210938 15.421875 -54.796875 C 16.847656 -53.378906 17.5625 -51.6875 17.5625 -49.71875 C 17.5625 -47.75 16.847656 -46.054688 15.421875 -44.640625 C 14.003906 -43.222656 12.3125 -42.515625 10.34375 -42.515625 C 8.382812 -42.515625 6.695312 -43.222656 5.28125 -44.640625 C 3.863281 -46.054688 3.15625 -47.75 3.15625 -49.71875 C 3.15625 -51.6875 3.863281 -53.378906 5.28125 -54.796875 Z M 4.109375 -35.1875 L 4.109375 0 L 16.25 0 L 16.25 -35.1875 Z M 4.109375 -35.1875 "/></g></g></g><g fill="#f6f5f1" fill-opacity="1"><g transform="translate(416.14305, 128.001273)"><g><path d="M 4.109375 0 L 4.109375 -35.1875 L 16.25 -35.1875 L 16.25 -31.484375 L 16.390625 -31.484375 C 19.546875 -34.628906 22.90625 -36.203125 26.46875 -36.203125 C 28.207031 -36.203125 29.929688 -35.972656 31.640625 -35.515625 C 33.359375 -35.066406 35.003906 -34.359375 36.578125 -33.390625 C 38.160156 -32.429688 39.441406 -31.070312 40.421875 -29.3125 C 41.410156 -27.550781 41.90625 -25.503906 41.90625 -23.171875 L 41.90625 0 L 29.765625 0 L 29.765625 -19.890625 C 29.765625 -21.710938 29.179688 -23.3125 28.015625 -24.6875 C 26.847656 -26.0625 25.328125 -26.75 23.453125 -26.75 C 21.617188 -26.75 19.957031 -26.039062 18.46875 -24.625 C 16.988281 -23.207031 16.25 -21.628906 16.25 -19.890625 L 16.25 0 Z M 4.109375 0 "/></g></g></g><g fill="#f6f5f1" fill-opacity="1"><g transform="translate(458.036777, 128.001273)"><g><path d="M 39.703125 -15.90625 L 14.203125 -15.90625 C 14.203125 -13.4375 15 -11.609375 16.59375 -10.421875 C 18.195312 -9.234375 19.9375 -8.640625 21.8125 -8.640625 C 23.769531 -8.640625 25.320312 -8.898438 26.46875 -9.421875 C 27.613281 -9.953125 28.914062 -10.992188 30.375 -12.546875 L 39.15625 -8.15625 C 35.5 -2.03125 29.421875 1.03125 20.921875 1.03125 C 15.617188 1.03125 11.066406 -0.785156 7.265625 -4.421875 C 3.472656 -8.054688 1.578125 -12.429688 1.578125 -17.546875 C 1.578125 -22.671875 3.472656 -27.0625 7.265625 -30.71875 C 11.066406 -34.375 15.617188 -36.203125 20.921875 -36.203125 C 26.492188 -36.203125 31.03125 -34.59375 34.53125 -31.375 C 38.03125 -28.15625 39.78125 -23.550781 39.78125 -17.5625 C 39.78125 -16.738281 39.753906 -16.1875 39.703125 -15.90625 Z M 14.53125 -22.625 L 27.90625 -22.625 C 27.632812 -24.457031 26.914062 -25.863281 25.75 -26.84375 C 24.582031 -27.832031 23.085938 -28.328125 21.265625 -28.328125 C 19.242188 -28.328125 17.640625 -27.800781 16.453125 -26.75 C 15.265625 -25.695312 14.625 -24.320312 14.53125 -22.625 Z M 14.53125 -22.625 "/></g></g></g><g fill="#f6f5f1" fill-opacity="1"><g transform="translate(495.953659, 128.001273)"><g><path d="M 19.40625 -36.203125 C 21.414062 -36.203125 23.40625 -35.972656 25.375 -35.515625 C 27.34375 -35.066406 28.804688 -34.613281 29.765625 -34.15625 L 31.203125 -33.46875 L 27.21875 -25.515625 C 24.476562 -26.972656 21.875 -27.703125 19.40625 -27.703125 C 18.03125 -27.703125 17.054688 -27.550781 16.484375 -27.25 C 15.921875 -26.957031 15.640625 -26.398438 15.640625 -25.578125 C 15.640625 -25.398438 15.660156 -25.21875 15.703125 -25.03125 C 15.742188 -24.84375 15.832031 -24.671875 15.96875 -24.515625 C 16.113281 -24.359375 16.242188 -24.222656 16.359375 -24.109375 C 16.472656 -23.992188 16.664062 -23.863281 16.9375 -23.71875 C 17.207031 -23.582031 17.421875 -23.476562 17.578125 -23.40625 C 17.742188 -23.34375 18.007812 -23.242188 18.375 -23.109375 C 18.738281 -22.972656 19.007812 -22.867188 19.1875 -22.796875 C 19.375 -22.734375 19.6875 -22.628906 20.125 -22.484375 C 20.5625 -22.347656 20.894531 -22.257812 21.125 -22.21875 C 22.539062 -21.8125 23.773438 -21.351562 24.828125 -20.84375 C 25.878906 -20.34375 26.988281 -19.65625 28.15625 -18.78125 C 29.320312 -17.914062 30.222656 -16.820312 30.859375 -15.5 C 31.492188 -14.175781 31.8125 -12.664062 31.8125 -10.96875 C 31.8125 -2.96875 26.257812 1.03125 15.15625 1.03125 C 12.644531 1.03125 10.253906 0.644531 7.984375 -0.125 C 5.722656 -0.90625 4.09375 -1.6875 3.09375 -2.46875 L 1.578125 -3.703125 L 6.515625 -12 C 6.878906 -11.675781 7.359375 -11.296875 7.953125 -10.859375 C 8.546875 -10.429688 9.617188 -9.835938 11.171875 -9.078125 C 12.734375 -8.328125 14.082031 -7.953125 15.21875 -7.953125 C 17.738281 -7.953125 19 -8.800781 19 -10.5 C 19 -11.269531 18.675781 -11.875 18.03125 -12.3125 C 17.394531 -12.75 16.3125 -13.238281 14.78125 -13.78125 C 13.25 -14.332031 12.046875 -14.835938 11.171875 -15.296875 C 8.984375 -16.429688 7.25 -17.71875 5.96875 -19.15625 C 4.6875 -20.601562 4.046875 -22.515625 4.046875 -24.890625 C 4.046875 -28.460938 5.425781 -31.238281 8.1875 -33.21875 C 10.957031 -35.207031 14.695312 -36.203125 19.40625 -36.203125 Z M 19.40625 -36.203125 "/></g></g></g><g fill="#f6f5f1" fill-opacity="1"><g transform="translate(526.259671, 128.001273)"><g><path d="M 11.9375 -14.671875 C 14.125 -14.671875 15.984375 -13.90625 17.515625 -12.375 C 19.046875 -10.84375 19.8125 -8.984375 19.8125 -6.796875 C 19.8125 -0.0234375 15.972656 6.535156 8.296875 12.890625 L 4.796875 10.015625 C 5.117188 9.734375 5.519531 9.316406 6 8.765625 C 6.476562 8.222656 7.1875 7.117188 8.125 5.453125 C 9.0625 3.785156 9.691406 2.101562 10.015625 0.40625 C 8.273438 0 6.851562 -0.851562 5.75 -2.15625 C 4.65625 -3.457031 4.109375 -5.003906 4.109375 -6.796875 C 4.109375 -8.984375 4.875 -10.84375 6.40625 -12.375 C 7.9375 -13.90625 9.78125 -14.671875 11.9375 -14.671875 Z M 11.9375 -14.671875 "/></g></g></g><g fill="#f6f5f1" fill-opacity="1"><g transform="translate(198.378526, 192.501267)"><g><path d="M 4.109375 0 L 4.109375 -35.1875 L 16.25 -35.1875 L 16.25 -30.109375 L 16.390625 -30.109375 C 16.484375 -30.285156 16.628906 -30.507812 16.828125 -30.78125 C 17.035156 -31.0625 17.484375 -31.546875 18.171875 -32.234375 C 18.859375 -32.921875 19.585938 -33.535156 20.359375 -34.078125 C 21.140625 -34.628906 22.144531 -35.117188 23.375 -35.546875 C 24.613281 -35.984375 25.875 -36.203125 27.15625 -36.203125 C 28.476562 -36.203125 29.78125 -36.019531 31.0625 -35.65625 C 32.34375 -35.289062 33.28125 -34.925781 33.875 -34.5625 L 34.84375 -34.015625 L 29.765625 -23.734375 C 28.253906 -25.003906 26.148438 -25.640625 23.453125 -25.640625 C 21.992188 -25.640625 20.738281 -25.320312 19.6875 -24.6875 C 18.632812 -24.050781 17.890625 -23.273438 17.453125 -22.359375 C 17.015625 -21.441406 16.703125 -20.660156 16.515625 -20.015625 C 16.335938 -19.378906 16.25 -18.878906 16.25 -18.515625 L 16.25 0 Z M 4.109375 0 "/></g></g></g><g fill="#f6f5f1" fill-opacity="1"><g transform="translate(229.095937, 192.501267)"><g><path d="M 39.703125 -15.90625 L 14.203125 -15.90625 C 14.203125 -13.4375 15 -11.609375 16.59375 -10.421875 C 18.195312 -9.234375 19.9375 -8.640625 21.8125 -8.640625 C 23.769531 -8.640625 25.320312 -8.898438 26.46875 -9.421875 C 27.613281 -9.953125 28.914062 -10.992188 30.375 -12.546875 L 39.15625 -8.15625 C 35.5 -2.03125 29.421875 1.03125 20.921875 1.03125 C 15.617188 1.03125 11.066406 -0.785156 7.265625 -4.421875 C 3.472656 -8.054688 1.578125 -12.429688 1.578125 -17.546875 C 1.578125 -22.671875 3.472656 -27.0625 7.265625 -30.71875 C 11.066406 -34.375 15.617188 -36.203125 20.921875 -36.203125 C 26.492188 -36.203125 31.03125 -34.59375 34.53125 -31.375 C 38.03125 -28.15625 39.78125 -23.550781 39.78125 -17.5625 C 39.78125 -16.738281 39.753906 -16.1875 39.703125 -15.90625 Z M 14.53125 -22.625 L 27.90625 -22.625 C 27.632812 -24.457031 26.914062 -25.863281 25.75 -26.84375 C 24.582031 -27.832031 23.085938 -28.328125 21.265625 -28.328125 C 19.242188 -28.328125 17.640625 -27.800781 16.453125 -26.75 C 15.265625 -25.695312 14.625 -24.320312 14.53125 -22.625 Z M 14.53125 -22.625 "/></g></g></g><g fill="#f6f5f1" fill-opacity="1"><g transform="translate(267.012814, 192.501267)"><g><path d="M 19.40625 -36.203125 C 21.414062 -36.203125 23.40625 -35.972656 25.375 -35.515625 C 27.34375 -35.066406 28.804688 -34.613281 29.765625 -34.15625 L 31.203125 -33.46875 L 27.21875 -25.515625 C 24.476562 -26.972656 21.875 -27.703125 19.40625 -27.703125 C 18.03125 -27.703125 17.054688 -27.550781 16.484375 -27.25 C 15.921875 -26.957031 15.640625 -26.398438 15.640625 -25.578125 C 15.640625 -25.398438 15.660156 -25.21875 15.703125 -25.03125 C 15.742188 -24.84375 15.832031 -24.671875 15.96875 -24.515625 C 16.113281 -24.359375 16.242188 -24.222656 16.359375 -24.109375 C 16.472656 -23.992188 16.664062 -23.863281 16.9375 -23.71875 C 17.207031 -23.582031 17.421875 -23.476562 17.578125 -23.40625 C 17.742188 -23.34375 18.007812 -23.242188 18.375 -23.109375 C 18.738281 -22.972656 19.007812 -22.867188 19.1875 -22.796875 C 19.375 -22.734375 19.6875 -22.628906 20.125 -22.484375 C 20.5625 -22.347656 20.894531 -22.257812 21.125 -22.21875 C 22.539062 -21.8125 23.773438 -21.351562 24.828125 -20.84375 C 25.878906 -20.34375 26.988281 -19.65625 28.15625 -18.78125 C 29.320312 -17.914062 30.222656 -16.820312 30.859375 -15.5 C 31.492188 -14.175781 31.8125 -12.664062 31.8125 -10.96875 C 31.8125 -2.96875 26.257812 1.03125 15.15625 1.03125 C 12.644531 1.03125 10.253906 0.644531 7.984375 -0.125 C 5.722656 -0.90625 4.09375 -1.6875 3.09375 -2.46875 L 1.578125 -3.703125 L 6.515625 -12 C 6.878906 -11.675781 7.359375 -11.296875 7.953125 -10.859375 C 8.546875 -10.429688 9.617188 -9.835938 11.171875 -9.078125 C 12.734375 -8.328125 14.082031 -7.953125 15.21875 -7.953125 C 17.738281 -7.953125 19 -8.800781 19 -10.5 C 19 -11.269531 18.675781 -11.875 18.03125 -12.3125 C 17.394531 -12.75 16.3125 -13.238281 14.78125 -13.78125 C 13.25 -14.332031 12.046875 -14.835938 11.171875 -15.296875 C 8.984375 -16.429688 7.25 -17.71875 5.96875 -19.15625 C 4.6875 -20.601562 4.046875 -22.515625 4.046875 -24.890625 C 4.046875 -28.460938 5.425781 -31.238281 8.1875 -33.21875 C 10.957031 -35.207031 14.695312 -36.203125 19.40625 -36.203125 Z M 19.40625 -36.203125 "/></g></g></g><g fill="#f6f5f1" fill-opacity="1"><g transform="translate(297.318826, 192.501267)"><g><path d="M 7.4375 -4.171875 C 3.53125 -7.648438 1.578125 -12.109375 1.578125 -17.546875 C 1.578125 -22.992188 3.609375 -27.460938 7.671875 -30.953125 C 11.742188 -34.453125 16.773438 -36.203125 22.765625 -36.203125 C 28.660156 -36.203125 33.628906 -34.441406 37.671875 -30.921875 C 41.722656 -27.398438 43.75 -22.941406 43.75 -17.546875 C 43.75 -12.160156 41.769531 -7.71875 37.8125 -4.21875 C 33.863281 -0.71875 28.847656 1.03125 22.765625 1.03125 C 16.453125 1.03125 11.34375 -0.703125 7.4375 -4.171875 Z M 16.828125 -23.515625 C 15.253906 -21.960938 14.46875 -19.972656 14.46875 -17.546875 C 14.46875 -15.128906 15.222656 -13.15625 16.734375 -11.625 C 18.242188 -10.09375 20.234375 -9.328125 22.703125 -9.328125 C 25.078125 -9.328125 27.03125 -10.101562 28.5625 -11.65625 C 30.09375 -13.207031 30.859375 -15.175781 30.859375 -17.5625 C 30.859375 -19.976562 30.066406 -21.960938 28.484375 -23.515625 C 26.910156 -25.078125 24.984375 -25.859375 22.703125 -25.859375 C 20.367188 -25.859375 18.410156 -25.078125 16.828125 -23.515625 Z M 16.828125 -23.515625 "/></g></g></g><g fill="#f6f5f1" fill-opacity="1"><g transform="translate(339.212553, 192.501267)"><g><path d="M 15.5625 -35.1875 L 15.5625 -18.453125 C 15.5625 -14.972656 16.085938 -12.5 17.140625 -11.03125 C 18.191406 -9.570312 19.972656 -8.84375 22.484375 -8.84375 C 25.003906 -8.84375 26.789062 -9.570312 27.84375 -11.03125 C 28.894531 -12.5 29.421875 -14.972656 29.421875 -18.453125 L 29.421875 -35.1875 L 41.5625 -35.1875 L 41.5625 -15.5 C 41.5625 -9.644531 40.039062 -5.425781 37 -2.84375 C 33.957031 -0.257812 29.117188 1.03125 22.484375 1.03125 C 15.859375 1.03125 11.023438 -0.257812 7.984375 -2.84375 C 4.941406 -5.425781 3.421875 -9.644531 3.421875 -15.5 L 3.421875 -35.1875 Z M 15.5625 -35.1875 "/></g></g></g><g fill="#f6f5f1" fill-opacity="1"><g transform="translate(380.763461, 192.501267)"><g><path d="M 4.109375 0 L 4.109375 -35.1875 L 16.25 -35.1875 L 16.25 -30.109375 L 16.390625 -30.109375 C 16.484375 -30.285156 16.628906 -30.507812 16.828125 -30.78125 C 17.035156 -31.0625 17.484375 -31.546875 18.171875 -32.234375 C 18.859375 -32.921875 19.585938 -33.535156 20.359375 -34.078125 C 21.140625 -34.628906 22.144531 -35.117188 23.375 -35.546875 C 24.613281 -35.984375 25.875 -36.203125 27.15625 -36.203125 C 28.476562 -36.203125 29.78125 -36.019531 31.0625 -35.65625 C 32.34375 -35.289062 33.28125 -34.925781 33.875 -34.5625 L 34.84375 -34.015625 L 29.765625 -23.734375 C 28.253906 -25.003906 26.148438 -25.640625 23.453125 -25.640625 C 21.992188 -25.640625 20.738281 -25.320312 19.6875 -24.6875 C 18.632812 -24.050781 17.890625 -23.273438 17.453125 -22.359375 C 17.015625 -21.441406 16.703125 -20.660156 16.515625 -20.015625 C 16.335938 -19.378906 16.25 -18.878906 16.25 -18.515625 L 16.25 0 Z M 4.109375 0 "/></g></g></g><g fill="#f6f5f1" fill-opacity="1"><g transform="translate(411.480866, 192.501267)"><g><path d="M 22.84375 -26.265625 C 20.550781 -26.265625 18.582031 -25.414062 16.9375 -23.71875 C 15.289062 -22.03125 14.46875 -20 14.46875 -17.625 C 14.46875 -15.195312 15.289062 -13.140625 16.9375 -11.453125 C 18.582031 -9.765625 20.550781 -8.921875 22.84375 -8.921875 C 23.9375 -8.921875 24.972656 -9.054688 25.953125 -9.328125 C 26.941406 -9.597656 27.660156 -9.875 28.109375 -10.15625 L 28.734375 -10.5625 L 32.84375 -2.125 C 32.53125 -1.894531 32.085938 -1.609375 31.515625 -1.265625 C 30.941406 -0.921875 29.632812 -0.453125 27.59375 0.140625 C 25.5625 0.734375 23.378906 1.03125 21.046875 1.03125 C 15.878906 1.03125 11.34375 -0.785156 7.4375 -4.421875 C 3.53125 -8.054688 1.578125 -12.410156 1.578125 -17.484375 C 1.578125 -22.609375 3.53125 -27.007812 7.4375 -30.6875 C 11.34375 -34.363281 15.878906 -36.203125 21.046875 -36.203125 C 23.378906 -36.203125 25.53125 -35.925781 27.5 -35.375 C 29.46875 -34.832031 30.863281 -34.285156 31.6875 -33.734375 L 32.84375 -32.921875 L 28.734375 -24.625 C 27.222656 -25.71875 25.257812 -26.265625 22.84375 -26.265625 Z M 22.84375 -26.265625 "/></g></g></g><g fill="#f6f5f1" fill-opacity="1"><g transform="translate(441.718305, 192.501267)"><g><path d="M 39.703125 -15.90625 L 14.203125 -15.90625 C 14.203125 -13.4375 15 -11.609375 16.59375 -10.421875 C 18.195312 -9.234375 19.9375 -8.640625 21.8125 -8.640625 C 23.769531 -8.640625 25.320312 -8.898438 26.46875 -9.421875 C 27.613281 -9.953125 28.914062 -10.992188 30.375 -12.546875 L 39.15625 -8.15625 C 35.5 -2.03125 29.421875 1.03125 20.921875 1.03125 C 15.617188 1.03125 11.066406 -0.785156 7.265625 -4.421875 C 3.472656 -8.054688 1.578125 -12.429688 1.578125 -17.546875 C 1.578125 -22.671875 3.472656 -27.0625 7.265625 -30.71875 C 11.066406 -34.375 15.617188 -36.203125 20.921875 -36.203125 C 26.492188 -36.203125 31.03125 -34.59375 34.53125 -31.375 C 38.03125 -28.15625 39.78125 -23.550781 39.78125 -17.5625 C 39.78125 -16.738281 39.753906 -16.1875 39.703125 -15.90625 Z M 14.53125 -22.625 L 27.90625 -22.625 C 27.632812 -24.457031 26.914062 -25.863281 25.75 -26.84375 C 24.582031 -27.832031 23.085938 -28.328125 21.265625 -28.328125 C 19.242188 -28.328125 17.640625 -27.800781 16.453125 -26.75 C 15.265625 -25.695312 14.625 -24.320312 14.53125 -22.625 Z M 14.53125 -22.625 "/></g></g></g><g fill="#f6f5f1" fill-opacity="1"><g transform="translate(479.635187, 192.501267)"><g><path d="M 19.40625 -36.203125 C 21.414062 -36.203125 23.40625 -35.972656 25.375 -35.515625 C 27.34375 -35.066406 28.804688 -34.613281 29.765625 -34.15625 L 31.203125 -33.46875 L 27.21875 -25.515625 C 24.476562 -26.972656 21.875 -27.703125 19.40625 -27.703125 C 18.03125 -27.703125 17.054688 -27.550781 16.484375 -27.25 C 15.921875 -26.957031 15.640625 -26.398438 15.640625 -25.578125 C 15.640625 -25.398438 15.660156 -25.21875 15.703125 -25.03125 C 15.742188 -24.84375 15.832031 -24.671875 15.96875 -24.515625 C 16.113281 -24.359375 16.242188 -24.222656 16.359375 -24.109375 C 16.472656 -23.992188 16.664062 -23.863281 16.9375 -23.71875 C 17.207031 -23.582031 17.421875 -23.476562 17.578125 -23.40625 C 17.742188 -23.34375 18.007812 -23.242188 18.375 -23.109375 C 18.738281 -22.972656 19.007812 -22.867188 19.1875 -22.796875 C 19.375 -22.734375 19.6875 -22.628906 20.125 -22.484375 C 20.5625 -22.347656 20.894531 -22.257812 21.125 -22.21875 C 22.539062 -21.8125 23.773438 -21.351562 24.828125 -20.84375 C 25.878906 -20.34375 26.988281 -19.65625 28.15625 -18.78125 C 29.320312 -17.914062 30.222656 -16.820312 30.859375 -15.5 C 31.492188 -14.175781 31.8125 -12.664062 31.8125 -10.96875 C 31.8125 -2.96875 26.257812 1.03125 15.15625 1.03125 C 12.644531 1.03125 10.253906 0.644531 7.984375 -0.125 C 5.722656 -0.90625 4.09375 -1.6875 3.09375 -2.46875 L 1.578125 -3.703125 L 6.515625 -12 C 6.878906 -11.675781 7.359375 -11.296875 7.953125 -10.859375 C 8.546875 -10.429688 9.617188 -9.835938 11.171875 -9.078125 C 12.734375 -8.328125 14.082031 -7.953125 15.21875 -7.953125 C 17.738281 -7.953125 19 -8.800781 19 -10.5 C 19 -11.269531 18.675781 -11.875 18.03125 -12.3125 C 17.394531 -12.75 16.3125 -13.238281 14.78125 -13.78125 C 13.25 -14.332031 12.046875 -14.835938 11.171875 -15.296875 C 8.984375 -16.429688 7.25 -17.71875 5.96875 -19.15625 C 4.6875 -20.601562 4.046875 -22.515625 4.046875 -24.890625 C 4.046875 -28.460938 5.425781 -31.238281 8.1875 -33.21875 C 10.957031 -35.207031 14.695312 -36.203125 19.40625 -36.203125 Z M 19.40625 -36.203125 "/></g></g></g></svg>